<svg baseProfile="tiny" height="920" version="1.2" width="736" xmlns="http://www.w3.org/2000/svg" xmlns:ev="http://www.w3.org/2001/xml-events" xmlns:xlink="http://www.w3.org/1999/xlink"><defs /><path d="M346,136 L345,137 L336,137 L335,138 L330,138 L329,139 L325,139 L324,140 L321,140 L320,141 L317,141 L316,142 L315,142 L314,143 L312,143 L311,144 L310,144 L307,147 L307,148 L306,149 L306,150 L305,151 L305,152 L304,153 L304,161 L305,162 L305,163 L306,164 L306,165 L309,168 L308,169 L308,170 L307,171 L307,172 L306,173 L306,175 L305,176 L305,177 L304,178 L304,180 L303,181 L303,184 L302,185 L302,187 L301,188 L301,194 L300,195 L300,197 L301,198 L301,202 L302,203 L302,205 L304,207 L304,208 L305,209 L306,209 L308,211 L309,211 L310,212 L312,212 L313,213 L316,213 L317,214 L317,220 L316,221 L316,226 L315,227 L315,231 L314,232 L314,237 L313,238 L313,244 L312,245 L312,251 L311,252 L311,258 L310,259 L310,267 L309,268 L309,276 L308,277 L308,286 L307,287 L307,299 L306,300 L306,315 L305,316 L305,352 L303,354 L302,354 L301,355 L300,355 L297,358 L296,358 L294,360 L293,360 L289,364 L288,364 L273,379 L273,380 L269,384 L269,385 L266,388 L266,389 L264,391 L264,392 L262,394 L262,395 L260,397 L260,398 L259,399 L259,400 L257,402 L257,403 L256,404 L256,405 L255,406 L255,407 L254,408 L254,410 L253,411 L253,412 L252,413 L252,414 L251,415 L251,417 L250,418 L250,419 L249,420 L249,422 L248,423 L248,425 L247,426 L247,428 L246,429 L246,431 L245,432 L245,435 L244,436 L244,439 L243,440 L243,444 L242,445 L242,450 L241,451 L241,458 L240,459 L240,497 L241,498 L241,538 L242,539 L242,576 L243,577 L243,614 L244,615 L244,652 L245,653 L245,690 L246,691 L246,729 L247,730 L247,767 L248,768 L248,782 L249,783 L249,786 L250,787 L250,788 L251,789 L251,791 L253,793 L253,794 L259,800 L260,800 L261,801 L262,801 L263,802 L264,802 L265,803 L266,803 L267,804 L270,804 L271,805 L464,805 L465,804 L468,804 L469,803 L470,803 L471,802 L472,802 L473,801 L474,801 L475,800 L476,800 L481,795 L481,794 L483,792 L483,791 L484,790 L484,789 L485,788 L485,786 L486,785 L486,782 L487,781 L487,764 L488,763 L488,724 L489,723 L489,686 L490,685 L490,647 L491,646 L491,608 L492,607 L492,570 L493,569 L493,531 L494,530 L494,493 L495,492 L495,461 L494,460 L494,451 L493,450 L493,446 L492,445 L492,440 L491,439 L491,436 L490,435 L490,433 L489,432 L489,429 L488,428 L488,426 L487,425 L487,423 L486,422 L486,420 L485,419 L485,418 L484,417 L484,415 L483,414 L483,413 L482,412 L482,411 L481,410 L481,408 L480,407 L480,406 L479,405 L479,404 L477,402 L477,401 L476,400 L476,399 L475,398 L475,397 L473,395 L473,394 L471,392 L471,391 L469,389 L469,388 L466,385 L466,384 L461,379 L461,378 L448,365 L447,365 L443,361 L442,361 L439,358 L438,358 L436,356 L435,356 L433,354 L432,354 L430,352 L430,316 L429,315 L429,300 L428,299 L428,288 L427,287 L427,278 L426,277 L426,269 L425,268 L425,261 L424,260 L424,254 L423,253 L423,247 L422,246 L422,241 L421,240 L421,235 L420,234 L420,230 L419,229 L419,225 L418,224 L418,220 L417,219 L417,215 L418,214 L419,214 L420,213 L423,213 L424,212 L426,212 L428,210 L429,210 L431,208 L431,207 L433,205 L433,203 L434,202 L434,190 L433,189 L433,187 L432,186 L432,183 L431,182 L431,180 L430,179 L430,178 L429,177 L429,175 L428,174 L428,173 L427,172 L427,170 L426,169 L426,168 L428,166 L428,165 L430,163 L430,161 L431,160 L431,154 L430,153 L430,151 L429,150 L429,149 L428,148 L428,147 L425,144 L424,144 L423,143 L421,143 L420,142 L418,142 L417,141 L415,141 L414,140 L411,140 L410,139 L405,139 L404,138 L398,138 L397,137 L387,137 L386,136" fill="none" stroke="white" stroke-width="30" /></svg>