<svg width="66" height="58" viewBox="0 0 66 58" fill="none" xmlns="http://www.w3.org/2000/svg">
<path d="M48.9173 3.74037e-05C46.684 -0.00387328 44.472 0.434009 42.4086 1.28847C40.3452 2.14294 38.4713 3.39711 36.8946 4.97878L16.8528 25.0166L12.8452 21.009C12.3033 20.4863 11.871 19.8608 11.5736 19.1691C11.2761 18.4774 11.1194 17.7333 11.1126 16.9804C11.1059 16.2275 11.2492 15.4808 11.5342 14.7839C11.8192 14.0869 12.2403 13.4538 12.7727 12.9214C13.3051 12.389 13.9382 11.9679 14.6352 11.6829C15.3321 11.3979 16.0788 11.2546 16.8317 11.2613C17.5846 11.2681 18.3287 11.4248 19.0204 11.7223C19.7121 12.0197 20.3376 12.452 20.8604 12.9939L28.8794 4.97878C25.6773 1.85535 21.3734 0.119409 16.9003 0.147062C12.4272 0.174715 8.14505 1.96374 4.98175 5.12651C1.81846 8.28929 0.0287334 12.5711 0.000342964 17.0442C-0.0280475 21.5173 1.70718 25.8215 4.83008 29.0242L16.8528 41.0469L56.2467 1.65301C53.9583 0.559625 51.4534 -0.00529515 48.9173 3.74037e-05Z" fill="#F3F3F3"/>
<path d="M64.261 9.67188L48.9165 25.0203L44.9089 21.0088L36.8938 29.0239L40.9014 33.0315L24.8711 49.0618L32.8862 57.0809L60.9392 29.0279C63.4256 26.5406 65.0801 23.3439 65.6749 19.8776C66.2698 16.4113 65.7758 12.8459 64.261 9.67188Z" fill="#F3F3F3"/>
</svg>
